<svg width="29" height="26" viewBox="0 0 29 26" fill="none" xmlns="http://www.w3.org/2000/svg">
<path d="M6.69328 22.8063H4.34723V21.7442C4.3524 17.6403 8.02565 14.3145 12.5584 14.3099H17.2505C21.7833 14.3145 25.4565 17.6403 25.4617 21.7442V22.8063H23.1156V21.7442C23.1118 18.8129 20.4881 16.4375 17.2505 16.434H12.5584C9.3208 16.4375 6.69716 18.8129 6.69328 21.7442V22.8063ZM14.9045 13.2478C11.6652 13.2478 9.03933 10.8703 9.03933 7.93753C9.03933 5.00475 11.6652 2.62726 14.9045 2.62726C18.1437 2.62726 20.7696 5.00475 20.7696 7.93753C20.7657 10.8689 18.1421 13.2443 14.9045 13.2478ZM14.9045 4.75137C12.9609 4.75137 11.3854 6.17786 11.3854 7.93753C11.3854 9.6972 12.9609 11.1237 14.9045 11.1237C16.848 11.1237 18.4235 9.6972 18.4235 7.93753C18.4235 6.17786 16.848 4.75137 14.9045 4.75137Z" fill="#828282"/>
</svg>
