<svg width="25" height="25" viewBox="0 0 25 25" fill="none" xmlns="http://www.w3.org/2000/svg">
<path d="M12.1414 19.5865C10.5013 19.6069 8.87809 19.253 7.39539 18.5515C6.24608 17.9907 5.21404 17.2163 4.35439 16.2695C3.44382 15.2906 2.72686 14.1482 2.24139 12.9025L2.14139 12.5865L2.24639 12.2705C2.7322 11.0259 3.44762 9.88378 4.35539 8.90351C5.21473 7.95682 6.24643 7.18237 7.39539 6.62151C8.8781 5.9201 10.5013 5.56612 12.1414 5.58651C13.7815 5.56616 15.4047 5.92013 16.8874 6.62151C18.0367 7.18225 19.0688 7.9567 19.9284 8.90351C20.8407 9.88107 21.5579 11.0239 22.0414 12.2705L22.1414 12.5865L22.0364 12.9025C20.4676 16.9863 16.5156 19.6559 12.1414 19.5865ZM12.1414 7.58651C8.73726 7.47984 5.61281 9.46161 4.25839 12.5865C5.61259 15.7116 8.73718 17.6935 12.1414 17.5865C15.5454 17.6929 18.6697 15.7112 20.0244 12.5865C18.6717 9.46009 15.5461 7.47759 12.1414 7.58651ZM12.1414 15.5865C10.6987 15.5961 9.45076 14.5839 9.16235 13.1703C8.87395 11.7567 9.62566 10.3365 10.9568 9.78017C12.2879 9.22381 13.8266 9.68665 14.6299 10.885C15.4332 12.0834 15.2768 13.6826 14.2564 14.7025C13.6977 15.2678 12.9361 15.5861 12.1414 15.5865Z" fill="#828282"/>
</svg>
