<svg width="24" height="24" viewBox="0 0 24 24" fill="none" xmlns="http://www.w3.org/2000/svg">
<path d="M12 21C11.355 20.428 10.626 19.833 9.85499 19.2H9.84499C7.12999 16.98 4.05299 14.468 2.69399 11.458C2.24751 10.4997 2.0109 9.45713 1.99998 8.4C1.997 6.94949 2.57876 5.55899 3.6138 4.54277C4.64884 3.52655 6.04978 2.97039 7.49999 3C8.68062 3.00186 9.83583 3.34308 10.828 3.983C11.264 4.26597 11.6584 4.60825 12 5C12.3435 4.60979 12.738 4.26771 13.173 3.983C14.1647 3.34295 15.3197 3.00172 16.5 3C17.9502 2.97039 19.3512 3.52655 20.3862 4.54277C21.4212 5.55899 22.003 6.94949 22 8.4C21.9898 9.45882 21.7532 10.5032 21.306 11.463C19.947 14.473 16.871 16.984 14.156 19.2L14.146 19.208C13.374 19.837 12.646 20.432 12.001 21.008L12 21ZM7.49999 5C6.5685 4.98834 5.67007 5.34484 4.99999 5.992C4.35438 6.62617 3.99355 7.49505 3.99991 8.4C4.01132 9.17051 4.18582 9.92986 4.51199 10.628C5.1535 11.9267 6.0191 13.1021 7.06899 14.1C8.05999 15.1 9.19999 16.068 10.186 16.882C10.459 17.107 10.737 17.334 11.015 17.561L11.19 17.704C11.457 17.922 11.733 18.148 12 18.37L12.013 18.358L12.019 18.353H12.025L12.034 18.346H12.039H12.044L12.062 18.331L12.103 18.298L12.11 18.292L12.121 18.284H12.127L12.136 18.276L12.8 17.731L12.974 17.588C13.255 17.359 13.533 17.132 13.806 16.907C14.792 16.093 15.933 15.126 16.924 14.121C17.974 13.1236 18.8397 11.9485 19.481 10.65C19.8131 9.94581 19.9901 9.17851 20 8.4C20.0042 7.49784 19.6435 6.63229 19 6C18.3312 5.34992 17.4326 4.99048 16.5 5C15.3619 4.99033 14.2739 5.46737 13.51 6.311L12 8.051L10.49 6.311C9.72606 5.46737 8.63807 4.99033 7.49999 5Z" fill="#828282"/>
</svg>
